# xmcd
#
# Track frame offsets:
#	150
#	21261
#	36315
#	61728
#	77941
#	91987
#	107002
#	125218
#	138886
#	155524
#	172700
#	185689
#	203227
#	220926
#	238538
#	254535
#	269355
#	286011
#	295784
#	308554
#
# Disc length: 4311 seconds
#
# Revision: 1
# Processed by: cddbd v1.5.2PL0 Copyright (c) Steve Scherf et al.
# Submitted via: audiograbber 1.83.01
#
DISCID=1e10d514
DTITLE=Various Artist - The Ray Hadley Country Music Collection [Disc 1]
DYEAR=2009
DGENRE=Country
TTITLE0=Alan Jackson - Small Town Southern Man
TTITLE1=Carrie Underwood - Before He Cheats
TTITLE2=Brooks and Dunn - Believe
TTITLE3=Leann Rimes - Good Friend And A Glass Of Wine
TTITLE4=Joe Nichols - Tequila Makes Her Clothes Fall Off (Album Version)
TTITLE5=The McClymonts - Favourite Boyfriend Of The Year
TTITLE6=Kenny Chesney - Got A Little Crazy
TTITLE7=Adam Harvey - Genie In The Bottle
TTITLE8=The Robertson Brothers - A Million Ways
TTITLE9=Catherine Britt - To Far Gone
TTITLE10=Johnny Cash - Man In Black (Album Version)
TTITLE11=Willie Nelson - All Of Me (Album Version)
TTITLE12=Sara Storer - Land Cries Out
TTITLE13=The Noll Brothers - Shining Star
TTITLE14=Alabama - In Pictures
TTITLE15=George Jones - He Stopped Loving Her Today
TTITLE16=Keith Whitley - When You Say Nothing At All
TTITLE17=Merle Haggard - Mama Tried
TTITLE18=Mickey Gilley - Room Full Of Roses
TTITLE19=Neil Williams (with Eric Jupp and His Orchestra) - My Woman, My Woman, M
TTITLE19=y Wife
EXTD=
EXTT0=
EXTT1=
EXTT2=
EXTT3=
EXTT4=
EXTT5=
EXTT6=
EXTT7=
EXTT8=
EXTT9=
EXTT10=
EXTT11=
EXTT12=
EXTT13=
EXTT14=
EXTT15=
EXTT16=
EXTT17=
EXTT18=
EXTT19=
PLAYORDER=
